<svg width="1152" height="700" viewBox="0 0 1152 700" fill="none" xmlns="http://www.w3.org/2000/svg">
<path d="M1079 378C1149.4 198.8 536.333 187 221 203.5L-21 196L-6 704H1043.5C1051.33 671.833 1047.5 598.1 969.5 560.5C872 513.5 788 482.5 401.5 624.5C15 766.5 70 590 82 555.5C94 521 140.5 414 318.5 354.5C496.5 295 991 602 1079 378Z" fill-opacity= "0.2" fill="#C5F3FB"/>
<path d="M377.356 -48.7459C364.103 -240.822 952.341 -67.7167 1248.12 42.8453L1481.17 108.466L1314.1 588.442L1274.83 420.352C1273.76 383.84 1261.59 267.81 1109.72 157.536C957.854 47.2629 393.922 191.349 377.356 -48.7459Z" fill-opacity= "0.2" fill="#C5F3FB"/>
</svg>
