<svg width="30" height="30" viewBox="0 0 26 26" fill="none" xmlns="http://www.w3.org/2000/svg">
<g clip-path="url(#clip0)">
<path d="M13 26C20.1797 26 26 20.1797 26 13C26 5.8203 20.1797 0 13 0C5.8203 0 0 5.8203 0 13C0 20.1797 5.8203 26 13 26Z" fill="#FFD93B"/>
<path d="M24.0304 12.9488L23.9898 13.0382C23.8111 13.4769 23.3317 13.7776 22.7873 13.7776H22.6979L15.7836 13.0788C15.3123 13.0219 14.5323 12.6969 14.4917 11.2019C14.4592 9.72319 15.2554 6.75756 16.5961 6.53819L21.9098 5.83944C21.9342 5.83131 22.0073 5.83131 22.0561 5.83131C22.5273 5.83131 22.9661 6.09131 23.2098 6.50569C24.4611 8.61006 24.7617 11.0232 24.0304 12.9488Z" fill="white"/>
<path d="M10.4365 7.36694C11.1678 8.43944 11.7365 10.4544 11.3628 12.0713C11.2409 12.6076 10.8022 13.0057 10.2334 13.0788L3.34341 13.7776C3.27029 13.7776 3.22966 13.7857 3.17279 13.7857C2.64466 13.7857 2.16529 13.4607 1.98654 12.9813C1.23091 11.0638 1.53154 8.63444 2.79091 6.49756C2.94529 6.20506 3.27841 5.83944 3.98529 5.83944L9.37216 6.53006C9.7711 6.61131 10.1124 6.87944 10.4365 7.36694Z" fill="white"/>
<path d="M25.9999 13C25.9999 20.1825 20.1784 26 12.9999 26C8.91306 26 5.26494 24.115 2.88025 21.1616C5.11056 22.9653 7.95025 24.0419 11.0418 24.0419C18.2202 24.0419 24.0418 18.2244 24.0418 11.0419C24.0418 7.95031 22.9652 5.11063 21.1615 2.88031C24.1109 5.265 25.9999 8.91313 25.9999 13Z" fill="#F4C534"/>
<path d="M23.8598 6.11569C23.4373 5.39256 22.633 4.97819 21.8042 5.10006C16.6042 5.79069 16.1167 5.70131 15.5073 6.22131C14.0448 7.48881 11.778 7.32631 10.5023 6.22131C10.2423 6.00194 9.9336 5.85569 9.4786 5.79881L4.19735 5.10006C3.37672 4.99444 2.56422 5.39256 2.14985 6.11569C0.760473 8.45569 0.451723 11.1288 1.30485 13.2819C1.65422 14.1594 2.61297 14.6307 3.4011 14.5169L10.2992 13.8101C11.128 13.7288 11.8511 13.1682 12.0705 12.3557C12.2086 11.8194 12.2655 11.2426 12.233 10.6413C12.2086 10.2107 12.558 9.81256 12.9967 9.81256H13.0048C14.0855 9.81256 13.5736 10.9907 13.9311 12.3557C14.1423 13.1682 14.8736 13.7288 15.7023 13.8101C15.8811 13.8344 22.633 14.5251 22.8117 14.5251C23.6405 14.5251 24.4042 14.0294 24.6967 13.2819C25.5409 11.1288 25.2411 8.45569 23.8598 6.11569ZM10.9655 11.9819C10.8842 12.3557 10.5755 12.6238 10.1855 12.6726L3.3036 13.3713C3.2711 13.3713 3.2386 13.3794 3.1736 13.3794C2.82422 13.3794 2.4911 13.1601 2.36922 12.8351C1.65422 11.0232 1.94672 8.73194 3.1411 6.70069C3.3036 6.39194 3.58797 6.24569 3.9861 6.24569L9.32422 6.93631C9.5761 6.98506 9.8361 7.19631 10.1042 7.59444C10.7867 8.60194 11.314 10.4869 10.9655 11.9819ZM23.6486 12.8026L23.6242 12.8513C23.4942 13.1682 23.1611 13.3713 22.7873 13.3713H22.7386L15.8242 12.6726C15.2392 12.5994 14.9223 12.0876 14.898 11.1938C14.8655 9.69881 15.678 7.09881 16.6611 6.93631L21.9586 6.24569C21.9911 6.23756 22.0236 6.23756 22.0561 6.23756C22.3811 6.23756 22.6898 6.41631 22.8605 6.70881C24.0459 8.71569 24.3384 10.998 23.6486 12.8026Z" fill="#3E4347"/>
<path d="M17.8278 12.1412C18.82 12.1412 19.6242 11.3369 19.6242 10.3448C19.6242 9.35261 18.82 8.54831 17.8278 8.54831C16.8357 8.54831 16.0314 9.35261 16.0314 10.3448C16.0314 11.3369 16.8357 12.1412 17.8278 12.1412Z" fill="#3E4347"/>
<path d="M17.3786 10.0685C17.2827 10.3391 17.0365 10.5056 16.822 10.4341C16.5994 10.3626 16.4962 10.0839 16.5913 9.80606C16.679 9.5355 16.9252 9.36894 17.1397 9.44044C17.3623 9.51194 17.4655 9.79063 17.3786 10.0685Z" fill="white"/>
<path d="M8.18181 12.1412C9.17396 12.1412 9.97825 11.3369 9.97825 10.3448C9.97825 9.35261 9.17396 8.54831 8.18181 8.54831C7.18967 8.54831 6.38538 9.35261 6.38538 10.3448C6.38538 11.3369 7.18967 12.1412 8.18181 12.1412Z" fill="#3E4347"/>
<path d="M8.1575 9.80687C8.06975 10.0774 7.82356 10.244 7.60094 10.1725C7.38644 10.101 7.28325 9.82231 7.37019 9.54444C7.45794 9.27387 7.71225 9.10731 7.92675 9.17881C8.14125 9.25031 8.24444 9.52819 8.1575 9.80687Z" fill="white"/>
<path d="M19.7666 17.9741C18.7526 20.7984 16.1054 22.8207 12.9984 22.8207C9.90036 22.8207 7.25324 20.7984 6.2303 17.9741C6.08242 17.5679 6.37736 17.1267 6.7373 17.2063C10.9144 18.0643 15.0914 18.0643 19.2685 17.2063C19.6276 17.1267 19.9234 17.5679 19.7666 17.9741Z" fill="#3E4347"/>
<path d="M12.9983 18.6599C13.5021 18.6599 14.0058 18.6518 14.5177 18.6274L14.4527 20.0736C13.9652 20.1224 13.4777 20.1386 12.9983 20.1386C11.9014 20.1386 10.8046 20.033 9.69955 19.8299C9.34205 19.7649 8.99268 19.6836 8.6433 19.6024C8.39955 19.5455 8.16393 19.4805 7.92018 19.4074C7.62768 19.0174 7.36768 18.5786 7.16455 18.1155C7.62768 18.2049 8.0908 18.278 8.55393 18.343C8.86268 18.3918 9.17955 18.4324 9.4883 18.4649C10.6664 18.5949 11.8364 18.6599 12.9983 18.6599Z" fill="white"/>
<path d="M18.8321 18.1163C18.629 18.5876 18.369 19.0182 18.0683 19.4163C17.2152 19.6601 16.3621 19.8388 15.509 19.9607L15.444 18.5632C16.5815 18.473 17.7108 18.3276 18.8321 18.1163Z" fill="white"/>
<path d="M12.9976 22.8207C13.9718 22.8207 14.9005 22.6216 15.7487 22.2617C15.7121 22.0821 15.6585 21.9082 15.5887 21.7433C15.249 20.9373 14.3358 20.4888 13.4973 20.7374C13.286 20.8 13.0528 20.8349 12.7961 20.8349C12.7083 20.8349 12.6238 20.8309 12.5418 20.8227C11.505 20.7236 10.543 21.3306 10.2749 22.2706C11.115 22.6241 12.0348 22.8207 12.9976 22.8207Z" fill="#E24B4B"/>
</g>
<defs>
<clipPath id="clip0">
<rect width="26" height="26" fill="white"/>
</clipPath>
</defs>
</svg>
